<svg version="1.1" id="Layer_1" xmlns="http://www.w3.org/2000/svg" xmlns:xlink="http://www.w3.org/1999/xlink" x="0px" y="0px"
	 width="100%" viewBox="0 0 233 187" enable-background="new 0 0 233 187" xml:space="preserve">
<path fill="#000000" opacity="1.000000" stroke="none" 
	d="
M1.000000,68.000000 
	C1.000000,45.333340 1.000000,23.166677 1.000000,1.000012 
	C78.666641,1.000008 156.333282,1.000008 233.999939,1.000004 
	C233.999969,63.333294 233.999969,125.666588 233.999985,187.999908 
	C156.333389,187.999939 78.666779,187.999939 1.000086,187.999969 
	C1.000000,148.166672 1.000000,108.333336 1.000000,68.000000 
M178.967728,24.277418 
	C178.931366,23.516699 178.895004,22.755981 179.040375,21.123093 
	C179.092010,13.685493 179.092010,13.685633 171.988144,13.976762 
	C171.822144,13.983565 171.655609,13.978079 171.489334,13.977691 
	C161.328018,13.953971 151.166718,13.930184 140.560226,13.162149 
	C115.355507,13.156464 90.150787,13.150778 64.123024,12.959342 
	C61.553677,13.299531 58.986366,13.914745 56.414646,13.933771 
	C43.087162,14.032371 29.758383,13.948008 16.430565,14.020756 
	C14.931164,14.028940 13.434974,14.625305 11.995840,14.989070 
	C11.995840,14.989070 11.983268,14.919200 11.182947,15.304196 
	C11.179925,23.898611 11.176903,32.493027 10.988976,41.997345 
	C11.045963,52.309330 11.102950,62.621311 11.035217,73.880043 
	C11.022310,90.789841 10.984765,107.699722 11.039281,124.609306 
	C11.044085,126.099113 11.650937,127.586975 11.990695,129.007111 
	C11.990695,129.007111 11.931293,129.043701 12.252978,129.769333 
	C13.223369,129.864319 14.224710,129.837296 15.159084,130.074295 
	C20.859663,131.520187 21.996853,130.674026 21.989515,124.734215 
	C21.984667,120.810814 21.880505,116.887527 21.987305,112.044586 
	C21.941101,100.332558 21.894899,88.620529 22.013153,76.304573 
	C21.946753,75.896172 21.880350,75.487778 21.952156,74.140892 
	C21.917843,62.733128 21.883530,51.325363 22.010708,39.057159 
	C22.040598,34.055073 22.070488,29.052984 22.889812,24.017834 
	C24.204449,24.042906 25.519087,24.067976 26.564913,24.759432 
	C25.392735,26.620792 23.375607,28.410967 23.211634,30.357269 
	C22.773140,35.562046 23.129831,40.833817 23.014355,46.993607 
	C23.069632,55.994785 23.124910,64.995964 23.042490,74.925835 
	C23.087185,87.257233 23.131880,99.588631 23.082724,112.707634 
	C23.113569,113.498413 23.144415,114.289200 23.013546,115.994705 
	C23.009104,122.083702 22.908100,128.174866 23.044970,134.260681 
	C23.104603,136.912231 23.652248,139.552811 24.315653,142.869308 
	C24.970013,142.962173 25.644026,142.984070 26.275654,143.159012 
	C31.825649,144.696152 33.969124,143.101944 33.983681,137.435928 
	C34.002842,129.978485 34.047775,122.521118 34.521996,115.001617 
	C34.521996,115.001617 34.955372,115.101425 34.996624,116.024971 
	C35.050896,124.660202 35.105164,133.295425 35.039124,142.849731 
	C35.042511,145.483841 35.005543,148.118790 35.060326,150.751831 
	C35.118279,153.537216 35.999416,155.105164 39.392784,154.971252 
	C47.273113,154.660294 55.171280,154.801270 63.741409,155.162720 
	C63.983162,155.373657 64.228676,155.773239 64.466125,155.768494 
	C75.935005,155.539612 87.402733,155.245865 98.872253,155.066757 
	C99.911705,155.050522 100.962273,155.746750 101.910301,156.989319 
	C101.947304,159.918915 101.984299,162.848526 101.158165,165.911118 
	C97.838242,166.372803 94.518326,166.834473 91.163139,167.301071 
	C91.163139,171.613663 91.163139,175.712051 91.163139,180.145432 
	C95.523361,180.398392 99.773735,180.644989 104.954971,180.992294 
	C109.706741,180.994873 114.462227,181.113663 119.209084,180.962204 
	C122.828003,180.846741 126.435982,180.388565 130.939819,180.021515 
	C136.279602,180.021515 141.619385,180.021515 147.851074,180.021515 
	C147.851074,176.402573 147.851074,172.197159 148.337250,167.252991 
	C156.111877,167.181793 163.886856,167.046204 171.660904,167.086731 
	C173.500549,167.096313 175.337097,167.697510 176.692963,168.772903 
	C169.768295,168.841660 162.843750,168.939041 155.918915,168.971451 
	C148.345657,169.006897 147.454315,170.317322 150.309708,178.816574 
	C175.544037,178.821625 200.778381,178.826675 226.882660,178.958771 
	C227.256760,177.691467 227.955658,176.424667 227.957703,175.156769 
	C228.015961,138.936157 228.013077,102.715424 227.962143,66.494797 
	C227.960571,65.381889 227.341507,64.269859 226.095215,63.037632 
	C223.192902,63.037632 220.290588,63.037632 217.163177,63.037632 
	C217.163177,66.908569 217.163177,70.459274 216.726425,74.661461 
	C216.484955,68.388458 216.302017,62.112278 215.961563,55.844654 
	C215.874603,54.243698 215.288834,52.669842 214.264328,50.633091 
	C212.155975,50.466167 210.047607,50.299244 207.449585,50.187107 
	C207.162109,50.385117 206.990158,50.656342 207.000076,50.986126 
	C207.000076,50.986126 206.974213,50.923283 206.099213,50.991550 
	C205.741592,52.094261 205.089096,53.193268 205.075195,54.300293 
	C204.997055,60.529404 205.072556,66.760445 204.908539,73.609245 
	C204.894028,74.039551 204.879517,74.469856 204.453445,75.004478 
	C204.453445,75.004478 204.030151,74.971733 203.987869,74.038963 
	C203.940643,62.708759 203.893433,51.378551 203.933884,39.528809 
	C203.650360,39.361927 203.366852,39.195045 203.084305,38.987717 
	C203.084305,38.987717 203.065582,38.951855 203.044373,38.105431 
	C201.622894,37.742737 200.189789,37.032463 198.781998,37.079494 
	C193.595505,37.252773 188.420013,37.817101 183.234421,37.912945 
	C181.852554,37.938488 180.449493,36.817993 179.953079,36.027332 
	C182.115921,36.020039 184.302429,36.206581 186.434372,35.946217 
	C188.252075,35.724228 191.522095,35.023308 191.534775,34.473854 
	C191.599365,31.677347 193.844330,28.214617 189.108063,25.991695 
	C185.698746,25.673534 182.289429,25.355375 178.967728,24.277418 
z"/>
<path fill="#184857" opacity="1.000000" stroke="none" 
	d="
M102.021301,165.778122 
	C101.984299,162.848526 101.947304,159.918915 101.978851,156.092834 
	C101.002022,154.657806 99.956932,153.652710 98.911209,153.652039 
	C86.943771,153.644470 74.976242,153.789764 62.693180,153.627502 
	C57.564312,153.290192 52.751144,153.173813 47.937656,153.158661 
	C37.652439,153.126312 37.656540,153.147461 36.938522,143.206009 
	C36.903614,142.722687 36.684536,142.252655 36.582909,141.324738 
	C36.473335,131.928360 36.332062,122.983696 36.334881,113.706161 
	C36.402367,112.904289 36.325760,112.435303 36.400787,111.524078 
	C36.543343,99.805420 36.534267,88.528984 36.684837,76.828278 
	C36.739559,75.519608 36.634632,74.635216 36.567345,73.300537 
	C36.583958,62.646011 36.562935,52.441772 36.716187,41.879295 
	C36.937927,40.730148 36.985397,39.939240 37.486000,39.026371 
	C46.568356,38.808975 55.197575,38.713543 64.210190,38.760017 
	C65.121300,38.805943 65.649002,38.709957 66.629486,38.675797 
	C78.663696,38.697227 90.245132,38.656837 102.208221,38.760635 
	C103.116653,38.810551 103.643440,38.716282 104.623306,38.684959 
	C116.328018,38.704937 127.579651,38.661972 139.211563,38.764420 
	C140.117279,38.815250 140.642731,38.720673 141.621613,38.687263 
	C153.662415,38.705807 165.249756,38.663177 177.291977,38.781075 
	C186.186432,38.945015 194.626007,38.948433 203.065582,38.951851 
	C203.065582,38.951855 203.084305,38.987717 202.983276,38.960564 
	C202.882248,38.933411 202.677765,39.018627 202.538483,39.475128 
	C202.457825,51.960438 202.516418,63.989254 202.484100,76.476151 
	C202.451065,88.948792 202.508957,100.963348 202.498138,113.446045 
	C202.533371,125.765953 202.637299,137.617722 202.500824,149.742340 
	C202.208328,153.502594 199.736221,153.162338 197.389313,153.159714 
	C179.855011,153.140121 162.320587,153.128784 144.786392,153.176651 
	C142.843262,153.181946 140.901184,153.575470 138.613953,153.772064 
	C137.979294,154.189102 137.689301,154.623016 137.086426,155.303879 
	C136.894104,158.698227 137.014633,161.845627 136.982330,165.395126 
	C138.785995,170.392197 142.826859,167.034485 145.825653,168.562256 
	C145.948868,172.097748 145.948868,175.193771 145.948868,179.274292 
	C140.338150,179.274292 135.103256,179.274292 129.409698,179.236145 
	C120.680290,179.236404 112.409523,179.274796 103.688599,179.169601 
	C99.984001,179.026016 96.729576,179.026016 93.190468,179.026016 
	C93.190468,175.116425 93.190468,171.930740 93.190468,168.133789 
	C95.424751,168.133789 97.406212,168.397995 99.262077,168.029572 
	C100.290283,167.825439 101.108452,166.563339 102.021301,165.778122 
M44.791828,48.918392 
	C44.774250,55.225784 44.728962,61.533241 44.743958,67.840553 
	C44.804325,93.231667 44.883316,118.622742 45.061611,144.814331 
	C46.463593,145.119354 47.865307,145.689575 49.267593,145.690994 
	C96.070099,145.738312 142.872726,145.698425 189.675064,145.797287 
	C193.259872,145.804855 194.663391,144.947495 194.645676,141.078171 
	C194.508377,111.098526 194.590652,81.117905 194.503174,51.137878 
	C194.499130,49.750923 193.525284,48.366795 192.086243,46.763367 
	C144.378082,46.744690 96.669937,46.724281 48.961784,46.719341 
	C47.974216,46.719238 46.986633,46.898426 45.433468,47.033447 
	C45.291531,47.356365 45.149593,47.679279 44.791828,48.918392 
z"/>
<path fill="#2EADD8" opacity="1.000000" stroke="none" 
	d="
M11.159938,72.933296 
	C11.102950,62.621311 11.045963,52.309330 11.402060,41.253311 
	C11.871185,31.979254 11.927227,23.449226 11.983268,14.919200 
	C11.983268,14.919200 11.995840,14.989070 12.438026,15.003882 
	C22.290579,15.000582 31.701540,15.041493 41.111126,14.946378 
	C49.180767,14.864806 57.248833,14.627604 65.759392,14.521433 
	C91.034798,14.549968 115.868401,14.516297 141.174805,14.643246 
	C153.518906,14.803865 165.390198,14.803865 177.903900,14.803865 
	C177.903900,17.673016 177.903900,19.775143 177.745758,22.111732 
	C177.058426,22.535360 176.529205,22.724525 175.535553,22.843504 
	C165.380325,22.816345 155.689545,22.859369 145.534058,22.832825 
	C131.024338,22.823790 116.979301,22.884321 102.723030,22.928307 
	C102.511803,22.911757 102.087410,22.935125 101.618378,22.856316 
	C89.099487,22.837471 77.049629,22.897436 64.536469,22.877731 
	C52.049366,22.833719 40.025566,22.869375 27.732691,22.643074 
	C25.312376,22.546667 23.161137,22.712215 20.701046,23.174000 
	C20.414673,29.063215 20.437153,34.656193 20.422268,40.699081 
	C20.434416,52.341969 20.483932,63.534950 20.392014,75.137604 
	C20.321140,76.113548 20.391703,76.679832 20.423542,77.696098 
	C20.433676,89.671333 20.482534,101.196587 20.372051,113.188599 
	C20.212709,118.587448 20.212709,123.519547 20.212709,128.072739 
	C19.006407,128.566025 18.711159,128.781372 18.406107,128.796280 
	C16.248962,128.901810 14.089808,128.966187 11.931293,129.043701 
	C11.931293,129.043701 11.990695,129.007111 12.062326,128.573303 
	C12.136128,111.775200 12.172459,95.410751 12.097121,79.046829 
	C12.087732,77.007591 11.486782,74.971077 11.159938,72.933296 
z"/>
<path fill="#246E86" opacity="1.000000" stroke="none" 
	d="
M207.939255,50.132320 
	C210.047607,50.299244 212.155975,50.466167 214.508301,51.312592 
	C214.752258,89.689491 214.752258,127.386894 214.752258,165.354141 
	C212.852661,165.599197 211.421738,165.783798 209.529022,165.884125 
	C188.778610,165.784073 168.489990,165.762222 148.201355,165.755859 
	C141.391525,165.753708 141.391525,165.771744 140.966003,158.654175 
	C142.740936,158.172607 144.335617,157.803802 145.933716,157.788239 
	C156.879364,157.681686 167.825714,157.649246 179.233612,157.762390 
	C186.949585,157.981094 194.215485,157.797409 201.453949,158.160721 
	C206.351883,158.406555 207.708344,156.379776 206.810150,151.675354 
	C206.713013,150.569244 206.557129,149.772430 206.407745,148.508362 
	C206.378876,136.592697 206.343521,125.144302 206.359146,113.594925 
	C206.410110,113.493950 206.307404,113.292389 206.334793,112.806152 
	C206.277618,100.547180 206.193069,88.774437 206.190231,76.617737 
	C206.293121,75.710922 206.314270,75.188072 206.414597,74.434677 
	C206.543076,73.879913 206.569946,73.553856 206.705490,72.823402 
	C206.882462,65.254990 206.928329,58.089138 206.974213,50.923283 
	C206.974213,50.923283 207.000076,50.986126 207.197235,50.931976 
	C207.703598,50.722603 207.885223,50.474098 207.939255,50.132320 
z"/>
<path fill="#D5EAFE" opacity="1.000000" stroke="none" 
	d="
M140.702011,14.482626 
	C115.868401,14.516297 91.034798,14.549968 65.677017,14.310375 
	C65.026169,13.753181 64.957237,13.455841 64.946068,13.145093 
	C90.150787,13.150778 115.355507,13.156464 140.672745,13.660400 
	C140.785263,14.158651 140.702011,14.482627 140.702011,14.482626 
z"/>
<path fill="#C6D9DF" opacity="1.000000" stroke="none" 
	d="
M209.990799,165.968384 
	C211.421738,165.783798 212.852661,165.599197 214.752258,165.354141 
	C214.752258,127.386894 214.752258,89.689491 214.842255,51.537815 
	C215.288834,52.669842 215.874603,54.243698 215.961563,55.844654 
	C216.302017,62.112278 216.484955,68.388458 217.208145,74.343384 
	C218.040802,74.040596 218.391739,74.055885 218.785339,74.450684 
	C218.715118,75.578644 218.602264,76.327095 218.267120,77.067986 
	C217.746918,77.022385 217.447968,77.010429 216.941910,76.691017 
	C216.490631,77.052162 216.032196,77.746521 216.031113,78.441582 
	C215.995316,101.469368 215.993561,124.497238 216.044907,147.524963 
	C216.046722,148.340302 216.639008,149.154312 216.964325,150.438446 
	C216.979721,155.158951 217.230545,159.431076 216.864685,163.649734 
	C216.732910,165.169281 215.119003,166.560303 214.003082,167.665298 
	C212.555847,167.165009 211.287003,167.009415 210.012085,166.632446 
	C210.005997,166.411057 209.990799,165.968384 209.990799,165.968384 
z"/>
<path fill="#9FD8EC" opacity="1.000000" stroke="none" 
	d="
M214.181458,168.009995 
	C215.119003,166.560303 216.732910,165.169281 216.864685,163.649734 
	C217.230545,159.431076 216.979721,155.158951 217.002167,150.184677 
	C217.079941,149.297516 217.128128,149.133606 217.416046,148.948730 
	C217.971603,148.875946 218.289261,148.840775 218.733307,149.287109 
	C218.914352,154.897751 218.735245,160.060349 219.101746,165.183945 
	C219.395569,169.291611 217.744995,170.203598 213.937576,170.173050 
	C194.841660,170.019775 175.743729,170.111176 156.646545,170.138077 
	C154.885605,170.140549 153.124863,170.294495 151.258484,170.383118 
	C151.258484,173.237152 151.258484,175.533676 150.913269,177.884827 
	C150.337524,177.973434 150.107010,178.007431 149.876511,178.041428 
	C147.454315,170.317322 148.345657,169.006897 155.918915,168.971451 
	C162.843750,168.939041 169.768295,168.841660 177.210373,168.396820 
	C178.096237,168.022369 178.464706,168.024017 179.072479,168.398834 
	C190.251663,168.840424 201.191483,168.926392 212.131378,168.935287 
	C212.814499,168.935837 213.498093,168.332413 214.181458,168.009995 
z"/>
<path fill="#CCE8F6" opacity="1.000000" stroke="none" 
	d="
M227.010330,63.157413 
	C227.341507,64.269859 227.960571,65.381889 227.962143,66.494797 
	C228.013077,102.715424 228.015961,138.936157 227.957703,175.156769 
	C227.955658,176.424667 227.256760,177.691467 226.446823,178.687195 
	C226.010986,178.415634 226.000000,177.999664 226.249756,177.671661 
	C226.605865,176.360062 226.805130,175.376465 226.805161,174.392868 
	C226.805984,137.682724 226.788406,100.972588 226.843109,63.988449 
	C226.945374,63.528767 226.977844,63.343090 227.010330,63.157413 
z"/>
<path fill="#AEC8D1" opacity="1.000000" stroke="none" 
	d="
M178.833160,168.025665 
	C178.464706,168.024017 178.096237,168.022369 177.451431,168.023651 
	C175.337097,167.697510 173.500549,167.096313 171.660904,167.086731 
	C163.886856,167.046204 156.111877,167.181793 147.735596,167.634796 
	C146.656754,168.052002 146.179596,168.087402 145.702423,168.122803 
	C142.826859,167.034485 138.785995,170.392197 137.368378,165.345123 
	C138.300049,162.901367 138.692841,160.909698 139.369431,158.919403 
	C140.031265,158.923965 140.409302,158.927170 140.787338,158.930389 
	C141.391525,165.771744 141.391525,165.753708 148.201355,165.755859 
	C168.489990,165.762222 188.778610,165.784073 209.529022,165.884125 
	C209.990799,165.968384 210.005997,166.411057 209.548401,166.714447 
	C200.506638,167.023926 191.921936,166.982971 183.338806,167.080505 
	C181.833542,167.097595 180.334869,167.695816 178.833160,168.025665 
z"/>
<path fill="#D7EBEB" opacity="1.000000" stroke="none" 
	d="
M206.335434,74.665230 
	C206.314270,75.188072 206.293121,75.710922 205.890411,76.624512 
	C205.309235,77.023262 205.109589,77.031273 204.520477,77.231056 
	C204.153336,89.267838 204.175690,101.112831 203.783752,112.994888 
	C203.092178,113.027580 202.814911,113.023232 202.531555,113.002380 
	C202.525467,112.985893 202.566849,112.977898 202.566849,112.977898 
	C202.508957,100.963348 202.451065,88.948792 202.462372,76.472275 
	C202.531570,76.010315 202.536041,75.974472 202.825531,75.902702 
	C203.403168,75.558044 203.691345,75.285149 203.987381,74.996140 
	C203.995255,74.980034 204.030151,74.971733 204.030151,74.971733 
	C204.030151,74.971733 204.453445,75.004478 205.026138,74.889603 
	C205.844360,74.738228 206.089905,74.701729 206.335434,74.665230 
z"/>
<path fill="#B6E1F1" opacity="1.000000" stroke="none" 
	d="
M226.000000,177.999664 
	C226.000000,177.999664 226.010986,178.415634 226.011841,178.623688 
	C200.778381,178.826675 175.544037,178.821625 150.093109,178.429001 
	C150.107010,178.007431 150.337524,177.973434 151.358963,177.917587 
	C176.766586,177.930389 201.383286,177.965027 226.000000,177.999664 
z"/>
<path fill="#D4F0F0" opacity="1.000000" stroke="none" 
	d="
M36.249153,111.966309 
	C36.325760,112.435303 36.402367,112.904289 36.130150,113.771988 
	C35.506008,114.480927 35.230690,114.791176 34.955372,115.101425 
	C34.955372,115.101425 34.521996,115.001617 33.965473,114.992691 
	C33.183975,115.003845 32.959000,115.023926 32.739220,114.729340 
	C32.675236,102.365479 32.606056,90.316292 32.754471,78.242966 
	C33.252026,78.124825 33.539558,78.072296 33.910263,78.520599 
	C33.990242,88.473534 33.954479,97.967484 34.040573,107.460327 
	C34.054104,108.952568 34.619991,110.439804 35.150356,111.931412 
	C35.663521,111.935951 35.956493,111.946899 36.249153,111.966309 
z"/>
<path fill="#94ACB5" opacity="1.000000" stroke="none" 
	d="
M36.551216,141.776443 
	C36.684536,142.252655 36.903614,142.722687 36.938522,143.206009 
	C37.656540,153.147461 37.652439,153.126312 47.937656,153.158661 
	C52.751144,153.173813 57.564312,153.290192 62.743011,153.841583 
	C63.108402,154.322449 63.062214,154.759064 63.062214,154.759064 
	C55.171280,154.801270 47.273113,154.660294 39.392784,154.971252 
	C35.999416,155.105164 35.118279,153.537216 35.060326,150.751831 
	C35.005543,148.118790 35.042511,145.483841 35.332825,142.363922 
	C35.626522,141.878128 36.080940,141.755234 36.080940,141.755234 
	C36.080940,141.755234 36.551216,141.776443 36.551216,141.776443 
z"/>
<path fill="#87B1BF" opacity="1.000000" stroke="none" 
	d="
M32.734024,115.044006 
	C32.959000,115.023926 33.183975,115.003845 33.745289,115.023743 
	C34.047775,122.521118 34.002842,129.978485 33.983681,137.435928 
	C33.969124,143.101944 31.825649,144.696152 26.275654,143.159012 
	C25.644026,142.984070 24.970013,142.962173 24.298374,142.157211 
	C24.368824,141.189224 24.456554,140.933319 24.951872,140.735077 
	C27.442038,140.792755 29.524616,140.792755 32.066196,140.792755 
	C32.066196,138.070114 32.010902,135.940353 32.076614,133.814346 
	C32.270023,127.556770 32.511417,121.300682 32.734024,115.044006 
z"/>
<path fill="#FFFFFF" opacity="1.000000" stroke="none" 
	d="
M20.531395,112.721832 
	C20.482534,101.196587 20.433676,89.671333 20.655209,77.643044 
	C21.221401,77.015411 21.529100,76.938248 21.848698,76.908501 
	C21.894899,88.620529 21.941101,100.332558 21.687357,112.470428 
	C21.107994,112.809044 20.822657,112.750900 20.531395,112.721832 
z"/>
<path fill="#FFFFFF" opacity="1.000000" stroke="none" 
	d="
M20.533447,74.727928 
	C20.483932,63.534950 20.434416,52.341969 20.654184,40.645924 
	C21.220284,40.019417 21.528868,39.944328 21.849216,39.917599 
	C21.883530,51.325363 21.917843,62.733128 21.671024,74.541405 
	C21.116518,74.822105 20.831038,74.750778 20.533447,74.727928 
z"/>
<path fill="#DCEBEF" opacity="1.000000" stroke="none" 
	d="
M202.536041,75.974472 
	C202.536041,75.974472 202.531570,76.010315 202.553299,76.014191 
	C202.516418,63.989254 202.457825,51.960438 202.746338,39.832466 
	C203.344376,39.838326 203.595291,39.943336 203.846191,40.048347 
	C203.893433,51.378551 203.940643,62.708759 204.009003,74.505348 
	C204.030151,74.971733 203.995255,74.980034 203.726639,75.134247 
	C203.150696,75.517128 202.843369,75.745804 202.536041,75.974472 
z"/>
<path fill="#8AC2D6" opacity="1.000000" stroke="none" 
	d="
M64.534546,13.052217 
	C64.957237,13.455841 65.026169,13.753181 65.235229,14.248171 
	C57.248833,14.627604 49.180767,14.864806 41.111126,14.946378 
	C31.701540,15.041493 22.290579,15.000582 12.408754,14.983806 
	C13.434974,14.625305 14.931164,14.028940 16.430565,14.020756 
	C29.758383,13.948008 43.087162,14.032371 56.414646,13.933771 
	C58.986366,13.914745 61.553677,13.299531 64.534546,13.052217 
z"/>
<path fill="#ABC0C7" opacity="1.000000" stroke="none" 
	d="
M101.589729,165.844620 
	C101.108452,166.563339 100.290283,167.825439 99.262077,168.029572 
	C97.406212,168.397995 95.424751,168.133789 93.190468,168.133789 
	C93.190468,171.930740 93.190468,175.116425 93.190468,179.026016 
	C96.729576,179.026016 99.984001,179.026016 103.683212,179.436096 
	C104.093376,180.194641 104.058746,180.543106 104.024109,180.891586 
	C99.773735,180.644989 95.523361,180.398392 91.163139,180.145432 
	C91.163139,175.712051 91.163139,171.613663 91.163139,167.301071 
	C94.518326,166.834473 97.838242,166.372803 101.589729,165.844620 
z"/>
<path fill="#D7FEFE" opacity="1.000000" stroke="none" 
	d="
M36.582909,141.324738 
	C36.551216,141.776443 36.080940,141.755234 36.080940,141.755234 
	C36.080940,141.755234 35.626522,141.878128 35.392979,141.904388 
	C35.105164,133.295425 35.050896,124.660202 34.975998,115.563202 
	C35.230690,114.791176 35.506008,114.480927 35.986057,114.104858 
	C36.332062,122.983696 36.473335,131.928360 36.582909,141.324738 
z"/>
<path fill="#EBEFFC" opacity="1.000000" stroke="none" 
	d="
M11.097578,73.406670 
	C11.486782,74.971077 12.087732,77.007591 12.097121,79.046829 
	C12.172459,95.410751 12.136128,111.775200 12.056057,128.607605 
	C11.650937,127.586975 11.044085,126.099113 11.039281,124.609306 
	C10.984765,107.699722 11.022310,90.789841 11.097578,73.406670 
z"/>
<path fill="#FFFFFF" opacity="1.000000" stroke="none" 
	d="
M104.489540,180.941940 
	C104.058746,180.543106 104.093376,180.194641 104.133385,179.579681 
	C112.409523,179.274796 120.680290,179.236404 129.374390,179.456238 
	C129.797714,179.714462 130.048828,180.082840 130.048828,180.082840 
	C126.435982,180.388565 122.828003,180.846741 119.209084,180.962204 
	C114.462227,181.113663 109.706741,180.994873 104.489540,180.941940 
z"/>
<path fill="#8AC2D6" opacity="1.000000" stroke="none" 
	d="
M141.174805,14.643246 
	C140.702011,14.482627 140.785263,14.158651 140.895325,14.032528 
	C151.166718,13.930184 161.328018,13.953971 171.489334,13.977691 
	C171.655609,13.978079 171.822144,13.983565 171.988144,13.976762 
	C179.092010,13.685633 179.092010,13.685493 178.710251,21.534557 
	C178.380127,21.946022 177.903900,21.877270 177.903900,21.877270 
	C177.903900,19.775143 177.903900,17.673016 177.903900,14.803865 
	C165.390198,14.803865 153.518906,14.803865 141.174805,14.643246 
z"/>
<path fill="#87B1BF" opacity="1.000000" stroke="none" 
	d="
M23.170559,46.078964 
	C23.129831,40.833817 22.773140,35.562046 23.211634,30.357269 
	C23.375607,28.410967 25.392735,26.620792 26.911812,24.408283 
	C27.258713,24.057133 27.685078,24.070539 28.047070,24.123535 
	C28.650671,24.162342 28.892279,24.148151 29.129360,24.293358 
	C29.124830,24.452755 29.019331,24.754299 28.996353,25.061474 
	C29.059469,25.769615 29.145565,26.170584 28.814159,26.716200 
	C25.593460,26.793453 24.891201,28.274837 24.868553,30.899521 
	C24.825157,35.928524 24.406759,40.954288 23.903324,46.032898 
	C23.662691,46.084396 23.170559,46.078964 23.170559,46.078964 
z"/>
<path fill="#A2DAEC" opacity="1.000000" stroke="none" 
	d="
M20.372051,113.188599 
	C20.822657,112.750900 21.107994,112.809044 21.604111,112.930229 
	C21.880505,116.887527 21.984667,120.810814 21.989515,124.734215 
	C21.996853,130.674026 20.859663,131.520187 15.159084,130.074295 
	C14.224710,129.837296 13.223369,129.864319 12.092136,129.406509 
	C14.089808,128.966187 16.248962,128.901810 18.406107,128.796280 
	C18.711159,128.781372 19.006407,128.566025 20.212709,128.072739 
	C20.212709,123.519547 20.212709,118.587448 20.372051,113.188599 
z"/>
<path fill="#89B2C0" opacity="1.000000" stroke="none" 
	d="
M206.536713,50.957417 
	C206.928329,58.089138 206.882462,65.254990 206.335815,72.756516 
	C205.588577,73.058395 205.342117,73.024612 205.095657,72.990822 
	C205.072556,66.760445 204.997055,60.529404 205.075195,54.300293 
	C205.089096,53.193268 205.741592,52.094261 206.536713,50.957417 
z"/>
<path fill="#ABC0C7" opacity="1.000000" stroke="none" 
	d="
M130.494324,180.052185 
	C130.048828,180.082840 129.797714,179.714462 129.833038,179.494385 
	C135.103256,179.274292 140.338150,179.274292 145.948868,179.274292 
	C145.948868,175.193771 145.948868,172.097748 145.825653,168.562256 
	C146.179596,168.087402 146.656754,168.052002 147.492493,168.004181 
	C147.851074,172.197159 147.851074,176.402573 147.851074,180.021515 
	C141.619385,180.021515 136.279602,180.021515 130.494324,180.052185 
z"/>
<path fill="#C5D7DB" opacity="1.000000" stroke="none" 
	d="
M63.401810,154.960892 
	C63.062214,154.759064 63.108402,154.322449 63.058571,154.108368 
	C74.976242,153.789764 86.943771,153.644470 98.911209,153.652039 
	C99.956932,153.652710 101.002022,154.657806 102.027542,155.654236 
	C100.962273,155.746750 99.911705,155.050522 98.872253,155.066757 
	C87.402733,155.245865 75.935005,155.539612 64.466125,155.768494 
	C64.228676,155.773239 63.983162,155.373657 63.401810,154.960892 
z"/>
<path fill="#94ACB5" opacity="1.000000" stroke="none" 
	d="
M203.054977,38.528641 
	C194.626007,38.948433 186.186432,38.945015 177.320129,38.477066 
	C176.915970,37.608749 176.938507,37.204964 176.939362,36.650414 
	C176.917694,36.499645 176.946045,36.196209 176.992828,35.866047 
	C177.062408,35.314747 177.085175,35.093609 177.402710,34.808624 
	C178.095459,34.781956 178.493484,34.819130 178.918304,35.199867 
	C178.982132,35.770180 179.019150,35.996918 179.056168,36.223663 
	C180.449493,36.817993 181.852554,37.938488 183.234421,37.912945 
	C188.420013,37.817101 193.595505,37.252773 198.781998,37.079494 
	C200.189789,37.032463 201.622894,37.742737 203.054977,38.528641 
z"/>
<path fill="#DBFDFD" opacity="1.000000" stroke="none" 
	d="
M23.176575,111.920029 
	C23.131880,99.588631 23.087185,87.257233 23.322680,74.461014 
	C23.602869,73.996193 24.025541,73.994049 24.110899,74.456924 
	C24.161448,87.282898 24.126637,99.645996 23.864952,111.966919 
	C23.638077,111.924744 23.176575,111.920029 23.176575,111.920029 
z"/>
<path fill="#9FD8EC" opacity="1.000000" stroke="none" 
	d="
M226.552765,63.097523 
	C226.977844,63.343090 226.945374,63.528767 226.422333,63.879692 
	C219.102753,63.633797 219.115707,63.633991 219.017899,70.165802 
	C218.998398,71.468674 218.838058,72.769440 218.742676,74.071175 
	C218.391739,74.055885 218.040802,74.040596 217.426514,74.017647 
	C217.163177,70.459274 217.163177,66.908569 217.163177,63.037632 
	C220.290588,63.037632 223.192902,63.037632 226.552765,63.097523 
z"/>
<path fill="#BAD6DE" opacity="1.000000" stroke="none" 
	d="
M179.504623,36.125496 
	C179.019150,35.996918 178.982132,35.770180 179.385208,35.158966 
	C183.063293,34.774490 186.301270,34.774490 189.779572,34.774490 
	C189.779572,31.780865 189.779572,29.509413 189.838165,26.958889 
	C189.933228,26.493242 189.969696,26.306669 190.006180,26.120096 
	C193.844330,28.214617 191.599365,31.677347 191.534775,34.473854 
	C191.522095,35.023308 188.252075,35.724228 186.434372,35.946217 
	C184.302429,36.206581 182.115921,36.020039 179.504623,36.125496 
z"/>
<path fill="#A2DAEC" opacity="1.000000" stroke="none" 
	d="
M21.929962,39.487381 
	C21.528868,39.944328 21.220284,40.019417 20.691551,40.196014 
	C20.437153,34.656193 20.414673,29.063215 20.809603,23.430948 
	C21.518135,23.611404 21.809256,23.831152 22.100376,24.050900 
	C22.070488,29.052984 22.040598,34.055073 21.929962,39.487381 
z"/>
<path fill="#D7FEFE" opacity="1.000000" stroke="none" 
	d="
M24.025541,73.994049 
	C24.025541,73.994049 23.602869,73.996193 23.391529,73.996674 
	C23.124910,64.995964 23.069632,55.994785 23.092457,46.536285 
	C23.170559,46.078964 23.662691,46.084396 23.969013,46.499352 
	C24.192070,55.940884 24.108805,64.967468 24.025541,73.994049 
z"/>
<path fill="#E0FFFF" opacity="1.000000" stroke="none" 
	d="
M24.544283,140.677399 
	C24.456554,140.933319 24.368824,141.189224 24.129681,141.821747 
	C23.652248,139.552811 23.104603,136.912231 23.044970,134.260681 
	C22.908100,128.174866 23.009104,122.083702 23.325001,115.535385 
	C23.636456,115.076057 24.089933,114.992271 24.174522,115.455170 
	C24.354168,124.171173 24.449224,132.424286 24.544283,140.677399 
z"/>
<path fill="#E8FBFB" opacity="1.000000" stroke="none" 
	d="
M11.583107,15.111698 
	C11.927227,23.449226 11.871185,31.979254 11.494513,40.798363 
	C11.176903,32.493027 11.179925,23.898611 11.583107,15.111698 
z"/>
<path fill="#87B1BF" opacity="1.000000" stroke="none" 
	d="
M189.557129,26.055897 
	C189.969696,26.306669 189.933228,26.493242 189.390320,26.910744 
	C184.848969,26.956474 180.814056,26.771278 176.842377,26.297966 
	C176.913605,25.623274 176.921600,25.236702 176.928955,24.888201 
	C176.928329,24.926273 176.860031,24.892145 177.188538,24.988777 
	C177.971405,25.069344 178.425751,25.053280 178.880112,25.037216 
	C182.289429,25.355375 185.698746,25.673534 189.557129,26.055897 
z"/>
<path fill="#8AC2D6" opacity="1.000000" stroke="none" 
	d="
M22.495094,24.034367 
	C21.809256,23.831152 21.518135,23.611404 21.118458,23.134712 
	C23.161137,22.712215 25.312376,22.546667 27.701399,22.947720 
	C27.854481,23.699728 27.769779,23.885134 27.685078,24.070539 
	C27.685078,24.070539 27.258713,24.057133 27.046219,24.075090 
	C25.519087,24.067976 24.204449,24.042906 22.495094,24.034367 
z"/>
<path fill="#87B1BF" opacity="1.000000" stroke="none" 
	d="
M24.089933,114.992271 
	C24.089933,114.992271 23.636456,115.076057 23.405857,115.078018 
	C23.144415,114.289200 23.113569,113.498413 23.129650,112.313828 
	C23.176575,111.920029 23.638077,111.924744 24.106911,112.140411 
	C24.413807,113.234810 24.251869,114.113541 24.089933,114.992271 
z"/>
<path fill="#D9EDF2" opacity="1.000000" stroke="none" 
	d="
M178.923920,24.657318 
	C178.425751,25.053280 177.971405,25.069344 177.203979,24.725197 
	C176.594101,24.187004 176.297302,24.009022 176.000275,23.601704 
	C176.000076,23.372368 176.000000,22.913692 176.000000,22.913691 
	C176.529205,22.724525 177.058426,22.535360 177.745758,22.111732 
	C177.903900,21.877270 178.380127,21.946022 178.619385,21.970642 
	C178.895004,22.755981 178.931366,23.516699 178.923920,24.657318 
z"/>
<path fill="#A2DAEC" opacity="1.000000" stroke="none" 
	d="
M20.392014,75.137604 
	C20.831038,74.750778 21.116518,74.822105 21.601921,75.010651 
	C21.880350,75.487778 21.946753,75.896172 21.930923,76.606537 
	C21.529100,76.938248 21.221401,77.015411 20.693932,77.193054 
	C20.391703,76.679832 20.321140,76.113548 20.392014,75.137604 
z"/>
<path fill="#94ACB5" opacity="1.000000" stroke="none" 
	d="
M205.002106,73.300034 
	C205.342117,73.024612 205.588577,73.058395 206.204727,73.159073 
	C206.569946,73.553856 206.543076,73.879913 206.414597,74.434677 
	C206.089905,74.701729 205.844360,74.738228 205.231903,74.837440 
	C204.879517,74.469856 204.894028,74.039551 205.002106,73.300034 
z"/>
<path fill="#94ACB5" opacity="1.000000" stroke="none" 
	d="
M203.890045,39.788578 
	C203.595291,39.943336 203.344376,39.838326 202.885620,39.375969 
	C202.677765,39.018627 202.882248,38.933411 202.982788,38.980789 
	C203.366852,39.195045 203.650360,39.361927 203.890045,39.788578 
z"/>
<path fill="#89B2C0" opacity="1.000000" stroke="none" 
	d="
M207.694427,50.159714 
	C207.885223,50.474098 207.703598,50.722603 207.164047,50.939304 
	C206.990158,50.656342 207.162109,50.385117 207.694427,50.159714 
z"/>
<path fill="#ADC2CA" opacity="1.000000" stroke="none" 
	d="
M193.003113,46.981350 
	C193.525284,48.366795 194.499130,49.750923 194.503174,51.137878 
	C194.590652,81.117905 194.508377,111.098526 194.645676,141.078171 
	C194.663391,144.947495 193.259872,145.804855 189.675064,145.797287 
	C142.872726,145.698425 96.070099,145.738312 49.267593,145.690994 
	C47.865307,145.689575 46.463593,145.119354 45.312897,144.396576 
	C45.767166,143.968597 45.970146,143.958359 46.630600,143.937897 
	C95.210190,143.927673 143.332306,143.927673 192.946594,143.927673 
	C192.946594,111.824745 192.946594,79.990204 192.957657,47.861935 
	C192.980179,47.372589 192.991653,47.176971 193.003113,46.981350 
z"/>
<path fill="#BDD1D5" opacity="1.000000" stroke="none" 
	d="
M192.544678,46.872360 
	C192.991653,47.176971 192.980179,47.372589 192.496948,47.792946 
	C143.369064,48.028152 94.712944,48.038624 46.014587,48.053650 
	C45.972347,48.058205 45.947216,47.977039 45.971657,47.731876 
	C45.996094,47.486713 45.999058,46.993973 45.999058,46.993973 
	C46.986633,46.898426 47.974216,46.719238 48.961784,46.719341 
	C96.669937,46.724281 144.378082,46.744690 192.544678,46.872360 
z"/>
<path fill="#94ACB5" opacity="1.000000" stroke="none" 
	d="
M206.401245,148.975601 
	C206.557129,149.772430 206.713013,150.569244 206.486542,151.689270 
	C205.671722,152.048691 205.239227,152.084885 204.471313,152.306427 
	C202.647461,153.365692 201.184814,154.937424 199.666183,154.993484 
	C192.854935,155.245026 186.027740,155.065399 178.806320,154.995148 
	C177.870956,154.979202 177.335602,155.009430 176.345306,155.070862 
	C164.331207,155.081558 152.772034,155.061035 140.884537,154.961761 
	C140.023697,154.518311 139.491150,154.153625 138.958618,153.788940 
	C140.901184,153.575470 142.843262,153.181946 144.786392,153.176651 
	C162.320587,153.128784 179.855011,153.140121 197.389313,153.159714 
	C199.736221,153.162338 202.208328,153.502594 202.878998,149.633728 
	C203.739685,149.152451 203.981781,149.052658 204.361099,148.928131 
	C204.498322,148.903397 204.773132,148.951416 205.179413,149.008057 
	C205.857529,149.035004 206.129379,149.005310 206.401245,148.975601 
z"/>
<path fill="#CBDDE1" opacity="1.000000" stroke="none" 
	d="
M46.173130,143.948105 
	C45.970146,143.958359 45.767166,143.968597 45.259808,143.996323 
	C44.883316,118.622742 44.804325,93.231667 44.743958,67.840553 
	C44.728962,61.533241 44.774250,55.225784 45.134613,48.460152 
	C45.477394,48.001915 45.947216,47.977039 45.947216,47.977039 
	C45.947216,47.977039 45.972347,48.058205 45.987984,48.518379 
	C46.060123,80.635071 46.116627,112.291588 46.173130,143.948105 
z"/>
<path fill="#D7E9E9" opacity="1.000000" stroke="none" 
	d="
M138.613953,153.772064 
	C139.491150,154.153625 140.023697,154.518311 141.002808,155.376312 
	C152.444305,155.912888 163.439270,155.976044 174.434097,155.957703 
	C175.223312,155.956390 176.011551,155.359573 176.800232,155.039642 
	C177.335602,155.009430 177.870956,154.979202 178.701935,155.299316 
	C179.006638,156.077621 179.015747,156.505585 178.905716,157.076965 
	C178.786591,157.220367 178.771851,157.592926 178.771851,157.592926 
	C167.825714,157.649246 156.879364,157.681686 145.933716,157.788239 
	C144.335617,157.803802 142.740936,158.172607 140.966003,158.654175 
	C140.409302,158.927170 140.031265,158.923965 139.101990,158.741135 
	C138.166946,157.393326 137.783127,156.225113 137.399307,155.056915 
	C137.689301,154.623016 137.979294,154.189102 138.613953,153.772064 
z"/>
<path fill="#DEE8E8" opacity="1.000000" stroke="none" 
	d="
M101.826576,38.616447 
	C90.245132,38.656837 78.663696,38.697227 66.597008,38.371086 
	C66.087006,37.599590 66.062256,37.194626 66.494896,36.888222 
	C78.621185,36.923744 90.290092,36.860706 101.977875,37.102554 
	C101.940033,37.810444 101.883308,38.213448 101.826576,38.616447 
z"/>
<path fill="#DCE7E7" opacity="1.000000" stroke="none" 
	d="
M176.961060,36.801178 
	C176.938507,37.204964 176.915970,37.608749 176.865265,38.316544 
	C165.249756,38.663177 153.662415,38.705807 141.585068,38.379288 
	C141.077042,37.600327 141.059006,37.190514 141.497574,36.882267 
	C153.623138,36.922943 165.292099,36.862061 176.961060,36.801178 
z"/>
<path fill="#D5FFFF" opacity="1.000000" stroke="none" 
	d="
M36.400787,111.524078 
	C35.956493,111.946899 35.663521,111.935951 35.177254,111.469772 
	C34.937294,99.681877 34.890308,88.357674 35.121773,77.085709 
	C35.775208,77.176155 36.150196,77.214355 36.525192,77.252563 
	C36.534267,88.528984 36.543343,99.805420 36.400787,111.524078 
z"/>
<path fill="#DCE7E7" opacity="1.000000" stroke="none" 
	d="
M138.831268,38.619011 
	C127.579651,38.661972 116.328018,38.704937 104.590935,38.379299 
	C104.083832,37.604370 104.062187,37.198044 104.498062,36.887844 
	C116.290718,36.924061 127.625847,36.864151 138.979080,37.108406 
	C138.941879,37.814716 138.886581,38.216862 138.831268,38.619011 
z"/>
<path fill="#DAECEC" opacity="1.000000" stroke="none" 
	d="
M204.223877,148.952881 
	C203.981781,149.052658 203.739685,149.152451 203.119415,149.360855 
	C202.637299,137.617722 202.533371,125.765953 202.498138,113.446045 
	C202.566849,112.977898 202.525467,112.985893 202.761963,113.238831 
	C203.399323,113.673828 203.800156,113.855896 204.102844,114.495201 
	C204.077759,126.285919 204.150818,137.619400 204.223877,148.952881 
z"/>
<path fill="#DCFEFE" opacity="1.000000" stroke="none" 
	d="
M36.541916,42.237534 
	C36.562935,52.441772 36.583958,62.646011 36.282593,73.322151 
	C35.584038,73.851463 35.207863,73.908882 34.904793,73.504944 
	C35.038906,62.718777 35.099918,52.393970 35.392715,42.097847 
	C35.624504,42.126534 36.074368,42.255066 36.074368,42.255066 
	C36.074368,42.255066 36.541916,42.237534 36.541916,42.237534 
z"/>
<path fill="#DEE8E8" opacity="1.000000" stroke="none" 
	d="
M63.826794,38.618111 
	C55.197575,38.713543 46.568356,38.808975 37.354088,38.757988 
	C36.188995,38.105946 35.608952,37.600323 35.493992,37.048286 
	C45.290855,36.927227 54.622627,36.852581 63.967865,37.086193 
	C63.929813,37.802341 63.878304,38.210224 63.826794,38.618111 
z"/>
<path fill="#94ACB5" opacity="1.000000" stroke="none" 
	d="
M137.086426,155.303879 
	C137.783127,156.225113 138.166946,157.393326 138.818207,158.739777 
	C138.692841,160.909698 138.300049,162.901367 137.521210,164.943024 
	C137.014633,161.845627 136.894104,158.698227 137.086426,155.303879 
z"/>
<path fill="#94ACB5" opacity="1.000000" stroke="none" 
	d="
M35.028904,37.094696 
	C35.608952,37.600323 36.188995,38.105946 36.900955,38.879951 
	C36.985397,39.939240 36.937927,40.730148 36.716187,41.879295 
	C36.541916,42.237534 36.074368,42.255066 36.074368,42.255066 
	C36.074368,42.255066 35.624504,42.126534 35.329712,41.798923 
	C34.731434,41.031208 34.427948,40.591099 34.042633,39.911591 
	C33.522114,39.534012 33.083427,39.395836 32.479889,38.943443 
	C32.456272,37.745552 32.597511,36.861870 33.083275,35.982113 
	C33.655178,36.011814 33.882549,36.037590 34.126205,36.320648 
	C34.437965,36.750191 34.733433,36.922443 35.028904,37.094696 
z"/>
<path fill="#94ACB5" opacity="1.000000" stroke="none" 
	d="
M34.831692,73.966293 
	C35.207863,73.908882 35.584038,73.851463 36.244957,73.772438 
	C36.634632,74.635216 36.739559,75.519608 36.684837,76.828278 
	C36.150196,77.214355 35.775208,77.176155 34.971268,77.133255 
	C34.542316,77.128555 34.227016,77.114182 33.903622,77.082214 
	C33.148216,77.026550 32.716202,77.002846 32.253906,76.593994 
	C32.360485,75.718826 32.497349,75.228813 32.882919,74.754135 
	C33.462456,74.461739 33.793285,74.154015 34.303211,73.863327 
	C34.482304,73.880363 34.831692,73.966293 34.831692,73.966293 
z"/>
<path fill="#94ACB5" opacity="1.000000" stroke="none" 
	d="
M64.210190,38.760017 
	C63.878304,38.210224 63.929813,37.802341 63.937412,36.950748 
	C63.893497,36.507042 63.941608,36.233452 63.990677,35.893913 
	C64.063843,35.326939 64.087929,35.099499 64.405869,34.809120 
	C65.095985,34.788429 65.492241,34.830685 65.923386,35.208870 
	C65.989738,35.767429 66.021217,35.990063 66.071060,36.357525 
	C66.089424,36.502350 66.037498,36.789665 66.037506,36.789665 
	C66.062256,37.194626 66.087006,37.599590 66.144241,38.309261 
	C65.649002,38.709957 65.121300,38.805943 64.210190,38.760017 
z"/>
<path fill="#94ACB5" opacity="1.000000" stroke="none" 
	d="
M104.040535,36.791718 
	C104.062187,37.198044 104.083832,37.604370 104.137848,38.316353 
	C103.643440,38.716282 103.116653,38.810551 102.208221,38.760635 
	C101.883308,38.213448 101.940033,37.810444 101.953598,36.956573 
	C101.910431,36.505703 101.947586,36.211964 101.997391,35.877403 
	C102.069939,35.318493 102.092690,35.094143 102.407898,34.805817 
	C103.094933,34.784481 103.489510,34.827122 103.918861,35.206497 
	C103.986572,35.766193 104.019516,35.989143 104.070328,36.357426 
	C104.088196,36.502762 104.040535,36.791718 104.040535,36.791718 
z"/>
<path fill="#94ACB5" opacity="1.000000" stroke="none" 
	d="
M139.211548,38.764420 
	C138.886581,38.216862 138.941879,37.814716 138.957367,36.958275 
	C138.917542,36.503975 138.950104,36.202217 138.997940,35.870064 
	C139.067841,35.315281 139.089905,35.092651 139.405029,34.805470 
	C140.093658,34.783024 140.489227,34.825138 140.920593,35.203941 
	C140.990707,35.763737 141.025024,35.986839 141.076019,36.353313 
	C141.092697,36.496689 141.040985,36.780704 141.040985,36.780704 
	C141.059006,37.190514 141.077042,37.600327 141.131622,38.318115 
	C140.642731,38.720673 140.117279,38.815250 139.211548,38.764420 
z"/>
<path fill="#ADC2CA" opacity="1.000000" stroke="none" 
	d="
M45.971657,47.731876 
	C45.947216,47.977039 45.477394,48.001915 45.242527,48.002056 
	C45.149593,47.679279 45.291531,47.356365 45.716263,47.013710 
	C45.999058,46.993973 45.996094,47.486713 45.971657,47.731876 
z"/>
<path fill="#D6F1F1" opacity="1.000000" stroke="none" 
	d="
M102.934258,22.944855 
	C116.979301,22.884321 131.024338,22.823790 145.534821,23.065807 
	C146.000259,23.368357 146.000717,23.833553 145.537537,23.910061 
	C131.074783,23.937723 117.075218,23.888880 103.053207,23.614202 
	C103.030762,23.388369 102.934258,22.944855 102.934258,22.944855 
z"/>
<path fill="#D8F2F2" opacity="1.000000" stroke="none" 
	d="
M64.999763,22.957401 
	C77.049629,22.897436 89.099487,22.837471 101.560966,23.079826 
	C101.972580,23.382149 101.921722,23.839449 101.464851,23.912590 
	C89.005562,23.934546 77.003143,23.883360 65.000679,23.613482 
	C65.000633,23.394789 64.999763,22.957403 64.999763,22.957401 
z"/>
<path fill="#D6F1F1" opacity="1.000000" stroke="none" 
	d="
M64.536469,22.877731 
	C64.999763,22.957403 65.000633,23.394789 64.537521,23.690258 
	C52.427570,24.035137 40.780727,24.084549 29.133888,24.133959 
	C28.892279,24.148151 28.650671,24.162342 28.047070,24.123535 
	C27.769779,23.885134 27.854481,23.699728 27.970476,23.209677 
	C40.025566,22.869375 52.049366,22.833719 64.536469,22.877731 
z"/>
<path fill="#D8F2F2" opacity="1.000000" stroke="none" 
	d="
M146.000717,23.833553 
	C146.000717,23.833553 146.000259,23.368357 145.999512,23.135376 
	C155.689545,22.859369 165.380325,22.816345 175.535553,22.843506 
	C176.000000,22.913692 176.000076,23.372368 175.537079,23.678272 
	C165.382965,23.933968 155.691833,23.883760 146.000717,23.833553 
z"/>
<path fill="#8AC2D6" opacity="1.000000" stroke="none" 
	d="
M101.921722,23.839449 
	C101.921722,23.839449 101.972580,23.382149 102.029999,23.158638 
	C102.087410,22.935125 102.511803,22.911757 102.723030,22.928307 
	C102.934258,22.944855 103.030762,23.388369 102.764519,23.672195 
	C102.306091,23.917164 102.113907,23.878307 101.921722,23.839449 
z"/>
<path fill="#89B2C0" opacity="1.000000" stroke="none" 
	d="
M179.233612,157.762390 
	C178.771851,157.592926 178.786591,157.220367 179.368408,157.099640 
	C186.314331,156.980255 192.691437,157.218353 199.036240,156.869186 
	C201.661942,156.724686 206.028290,157.468033 204.806747,152.121094 
	C205.239227,152.084885 205.671722,152.048691 206.427795,151.998550 
	C207.708344,156.379776 206.351883,158.406555 201.453949,158.160721 
	C194.215485,157.797409 186.949585,157.981094 179.233612,157.762390 
z"/>
<path fill="#D3E2F0" opacity="1.000000" stroke="none" 
	d="
M204.909958,77.039276 
	C205.109589,77.031273 205.309235,77.023262 205.808685,77.008476 
	C206.193069,88.774437 206.277618,100.547180 205.953323,112.736755 
	C205.295227,113.088173 205.045990,113.022758 204.890076,112.499619 
	C204.958908,100.374352 204.934433,88.706810 204.909958,77.039276 
z"/>
<path fill="#D5E4F1" opacity="1.000000" stroke="none" 
	d="
M206.407730,148.508362 
	C206.129379,149.005310 205.857529,149.035004 205.281189,148.552246 
	C204.918488,136.707367 204.860306,125.374931 205.175491,113.942223 
	C205.801956,113.793274 206.055054,113.744591 206.308167,113.695900 
	C206.343521,125.144302 206.378876,136.592697 206.407730,148.508362 
z"/>
<path fill="#94ACB5" opacity="1.000000" stroke="none" 
	d="
M206.359131,113.594925 
	C206.055054,113.744591 205.801956,113.793274 205.025055,113.964493 
	C204.501236,114.087029 204.201004,114.037964 204.201004,114.037964 
	C203.800156,113.855896 203.399323,113.673828 202.768066,113.255318 
	C202.814911,113.023232 203.092178,113.027580 203.933411,112.971848 
	C204.497345,112.911758 204.796753,112.957344 204.796753,112.957344 
	C205.045990,113.022758 205.295227,113.088173 205.925934,113.222992 
	C206.307404,113.292389 206.410110,113.493950 206.359131,113.594925 
z"/>
<path fill="#2FADD8" opacity="1.000000" stroke="none" 
	d="
M218.785339,74.450684 
	C218.838058,72.769440 218.998398,71.468674 219.017899,70.165802 
	C219.115707,63.633991 219.102753,63.633797 226.352570,64.153702 
	C226.788406,100.972588 226.805984,137.682724 226.805161,174.392868 
	C226.805130,175.376465 226.605865,176.360062 226.249756,177.671661 
	C201.383286,177.965027 176.766586,177.930389 151.704178,177.862976 
	C151.258484,175.533676 151.258484,173.237152 151.258484,170.383118 
	C153.124863,170.294495 154.885605,170.140549 156.646545,170.138077 
	C175.743729,170.111176 194.841660,170.019775 213.937576,170.173050 
	C217.744995,170.203598 219.395569,169.291611 219.101746,165.183945 
	C218.735245,160.060349 218.914352,154.897751 218.801407,148.837463 
	C218.686432,136.684662 218.627930,125.446373 218.697296,113.817337 
	C218.758881,112.889053 218.692551,112.351524 218.681305,111.361328 
	C218.654053,99.630959 218.571732,88.353256 218.489410,77.075546 
	C218.602264,76.327095 218.715118,75.578644 218.785339,74.450684 
z"/>
<path fill="#000000" opacity="1.000000" stroke="none" 
	d="
M217.176300,148.969696 
	C217.128128,149.133606 217.079941,149.297516 216.993942,149.715179 
	C216.639008,149.154312 216.046722,148.340302 216.044907,147.524963 
	C215.993561,124.497238 215.995316,101.469368 216.031113,78.441582 
	C216.032196,77.746521 216.490631,77.052162 216.873688,77.153656 
	C217.065964,89.286186 217.120422,100.622520 217.108292,112.301559 
	C217.095657,113.103844 217.149597,113.563423 217.115936,114.482925 
	C217.077652,126.285126 217.126984,137.627411 217.176300,148.969696 
z"/>
<path fill="#000000" opacity="1.000000" stroke="none" 
	d="
M179.072479,168.398834 
	C180.334869,167.695816 181.833542,167.097595 183.338806,167.080505 
	C191.921936,166.982971 200.506638,167.023926 209.554474,166.935822 
	C211.287003,167.009415 212.555847,167.165009 214.003082,167.665298 
	C213.498093,168.332413 212.814499,168.935837 212.131378,168.935287 
	C201.191483,168.926392 190.251663,168.840424 179.072479,168.398834 
z"/>
<path fill="#DCFEFE" opacity="1.000000" stroke="none" 
	d="
M217.174881,111.958862 
	C217.120422,100.622520 217.065964,89.286186 217.079742,77.487198 
	C217.447968,77.010429 217.746918,77.022385 218.267120,77.067986 
	C218.571732,88.353256 218.654053,99.630959 218.440491,111.384552 
	C217.823135,111.910652 217.499893,111.943459 217.174881,111.958862 
z"/>
<path fill="#DCFEFE" opacity="1.000000" stroke="none" 
	d="
M217.416046,148.948730 
	C217.126984,137.627411 217.077652,126.285126 217.343643,114.519012 
	C217.960236,114.150703 218.263733,114.188332 218.569427,114.208084 
	C218.627930,125.446373 218.686432,136.684662 218.676834,148.372589 
	C218.289261,148.840775 217.971603,148.875946 217.416046,148.948730 
z"/>
<path fill="#000000" opacity="1.000000" stroke="none" 
	d="
M204.890076,112.499619 
	C204.796753,112.957344 204.497345,112.911758 204.347687,112.934799 
	C204.175690,101.112831 204.153336,89.267838 204.520477,77.231056 
	C204.934433,88.706810 204.958908,100.374352 204.890076,112.499619 
z"/>
<path fill="#94ACB5" opacity="1.000000" stroke="none" 
	d="
M202.825531,75.902710 
	C202.843369,75.745804 203.150696,75.517128 203.718765,75.150352 
	C203.691345,75.285149 203.403168,75.558044 202.825531,75.902710 
z"/>
<path fill="#226D85" opacity="1.000000" stroke="none" 
	d="
M140.884796,34.867249 
	C140.489227,34.825138 140.093658,34.783024 138.927933,34.759521 
	C126.733215,34.808670 115.308655,34.839214 103.884094,34.869759 
	C103.489510,34.827122 103.094933,34.784481 101.930412,34.760349 
	C89.403152,34.810219 77.645821,34.841579 65.888496,34.872940 
	C65.492241,34.830685 65.095985,34.788429 63.928860,34.762012 
	C54.527023,34.768295 45.895344,34.699844 37.265770,34.804676 
	C35.752235,34.823063 34.247532,35.568520 32.738750,35.978188 
	C32.597511,36.861870 32.456272,37.745552 32.405830,39.388039 
	C32.542492,51.677502 32.588352,63.208149 32.634212,74.738800 
	C32.497349,75.228813 32.360485,75.718826 32.244118,76.930405 
	C32.355370,77.857010 32.446121,78.062057 32.536873,78.267097 
	C32.606056,90.316292 32.675236,102.365479 32.739220,114.729340 
	C32.511417,121.300682 32.270023,127.556770 32.076614,133.814346 
	C32.010902,135.940353 32.066196,138.070114 32.066196,140.792755 
	C29.524616,140.792755 27.442038,140.792755 24.951872,140.735077 
	C24.449224,132.424286 24.354168,124.171173 24.174522,115.455170 
	C24.251869,114.113541 24.413807,113.234810 24.333786,112.182587 
	C24.126637,99.645996 24.161448,87.282898 24.110899,74.456924 
	C24.108805,64.967468 24.192070,55.940884 24.209648,46.447849 
	C24.406759,40.954288 24.825157,35.928524 24.868553,30.899521 
	C24.891201,28.274837 25.593460,26.793453 29.264397,26.755066 
	C33.946724,26.661255 37.763302,26.757271 41.575478,26.667158 
	C48.814793,26.496035 56.051586,26.218357 63.351357,25.944191 
	C63.413288,25.903442 63.511959,26.014107 63.808517,26.088818 
	C64.307884,26.179188 64.510704,26.194847 65.124969,26.330360 
	C78.684189,26.394808 91.831955,26.339401 105.427452,26.436575 
	C116.921440,26.550751 127.967697,26.512348 139.478271,26.522102 
	C152.221436,26.575535 164.500290,26.580809 176.779129,26.586082 
	C180.814056,26.771278 184.848969,26.956474 189.331726,27.189816 
	C189.779572,29.509413 189.779572,31.780865 189.779572,34.774490 
	C186.301270,34.774490 183.063293,34.774490 179.358398,34.815395 
	C178.493484,34.819130 178.095459,34.781956 176.925995,34.762840 
	C164.397949,34.809685 152.641373,34.838467 140.884796,34.867249 
z"/>
<path fill="#000000" opacity="1.000000" stroke="none" 
	d="
M34.227016,77.114182 
	C34.227016,77.114182 34.542316,77.128555 34.692818,77.081017 
	C34.890308,88.357674 34.937294,99.681877 34.957382,111.467712 
	C34.619991,110.439804 34.054104,108.952568 34.040573,107.460327 
	C33.954479,97.967484 33.990242,88.473534 33.994904,78.278252 
	C34.078304,77.422432 34.152660,77.268303 34.227016,77.114182 
z"/>
<path fill="#87B1BF" opacity="1.000000" stroke="none" 
	d="
M33.903622,77.082214 
	C34.152660,77.268303 34.078304,77.422432 33.919312,77.818909 
	C33.539558,78.072296 33.252026,78.124825 32.754471,78.242966 
	C32.446121,78.062057 32.355370,77.857010 32.274403,77.315552 
	C32.716202,77.002846 33.148216,77.026550 33.903622,77.082214 
z"/>
<path fill="#000000" opacity="1.000000" stroke="none" 
	d="
M63.511959,26.014107 
	C63.511959,26.014107 63.413288,25.903442 63.083473,25.576015 
	C51.508881,25.083828 40.264107,24.919064 29.019331,24.754299 
	C29.019331,24.754299 29.124830,24.452755 29.129360,24.293358 
	C40.780727,24.084549 52.427570,24.035137 64.537567,23.908951 
	C77.003143,23.883360 89.005562,23.934546 101.464851,23.912590 
	C102.113907,23.878307 102.306091,23.917164 102.786964,23.898029 
	C117.075218,23.888880 131.074783,23.937723 145.537537,23.910061 
	C155.691833,23.883760 165.382965,23.933968 175.537292,23.907608 
	C176.297302,24.009022 176.594101,24.187004 176.875473,24.628565 
	C176.860031,24.892145 176.928329,24.926273 176.469818,24.956720 
	C164.002899,25.028473 151.994507,25.069777 139.744080,25.032009 
	C139.340500,25.006426 139.178970,25.059914 138.550049,25.063328 
	C127.054771,25.065622 116.026878,25.117987 104.535492,25.097042 
	C91.065956,25.072666 78.059914,25.121599 64.740997,25.163237 
	C64.122734,25.441996 63.817345,25.728050 63.511959,26.014107 
z"/>
<path fill="#E1F0F0" opacity="1.000000" stroke="none" 
	d="
M28.996353,25.061474 
	C40.264107,24.919064 51.508881,25.083828 63.021545,25.616764 
	C56.051586,26.218357 48.814793,26.496035 41.575478,26.667158 
	C37.763302,26.757271 33.946724,26.661255 29.681898,26.610416 
	C29.145565,26.170584 29.059469,25.769615 28.996353,25.061474 
z"/>
<path fill="#BAD6DE" opacity="1.000000" stroke="none" 
	d="
M140.920593,35.203941 
	C152.641373,34.838467 164.397949,34.809685 176.631241,34.826687 
	C177.085175,35.093609 177.062408,35.314747 176.535004,35.778576 
	C164.373352,36.084160 152.716339,36.147049 141.059326,36.209938 
	C141.025024,35.986839 140.990707,35.763737 140.920593,35.203941 
z"/>
<path fill="#000000" opacity="1.000000" stroke="none" 
	d="
M141.076019,36.353313 
	C152.716339,36.147049 164.373352,36.084160 176.488205,36.108738 
	C176.946045,36.196209 176.917694,36.499645 176.939377,36.650414 
	C165.292099,36.862061 153.623138,36.922943 141.497589,36.882267 
	C141.040985,36.780704 141.092697,36.496689 141.076019,36.353313 
z"/>
<path fill="#D9EDF2" opacity="1.000000" stroke="none" 
	d="
M139.986115,25.111080 
	C151.994507,25.069777 164.002899,25.028473 176.470444,24.918648 
	C176.921600,25.236702 176.913605,25.623274 176.842377,26.297966 
	C164.500290,26.580809 152.221436,26.575535 139.473663,26.540985 
	C139.004730,26.511709 138.995331,26.491568 139.197327,26.289856 
	C139.594910,25.762457 139.790512,25.436768 139.986115,25.111080 
z"/>
<path fill="#000000" opacity="1.000000" stroke="none" 
	d="
M46.630600,143.937897 
	C46.116627,112.291588 46.060123,80.635071 46.030220,48.513824 
	C94.712944,48.038624 143.369064,48.028152 192.485886,48.086670 
	C192.946594,79.990204 192.946594,111.824745 192.946594,143.927673 
	C143.332306,143.927673 95.210190,143.927673 46.630600,143.937897 
M98.224068,115.696892 
	C100.001144,116.261810 101.778221,116.826721 103.688499,117.433975 
	C104.731400,106.710350 104.731400,106.710350 97.519852,104.977539 
	C92.375755,102.791183 87.231659,100.604828 80.928658,97.925911 
	C88.283218,94.938568 94.172661,92.500282 100.099762,90.157295 
	C103.304077,88.890625 105.460014,84.769463 103.959435,81.827393 
	C102.177643,78.333977 99.547363,80.170532 97.162186,81.207573 
	C89.929871,84.352043 82.735573,87.587593 75.454811,90.615372 
	C72.240982,91.951874 69.853432,93.277451 69.784996,97.517715 
	C69.719131,101.599510 71.514694,103.578957 74.868347,105.012115 
	C82.545235,108.292763 90.185226,111.659752 98.224068,115.696892 
M164.812943,105.035339 
	C170.334290,104.551804 170.231354,100.335541 169.860855,96.615280 
	C169.490448,92.895721 168.721848,88.708290 162.411057,89.739441 
	C155.058594,86.470810 147.691116,83.235420 140.360046,79.919472 
	C136.710266,78.268623 134.824341,79.075684 135.008438,83.063599 
	C135.102722,85.106270 136.496292,87.807877 138.162521,88.901047 
	C141.119873,90.841286 144.721512,91.810333 148.073654,93.134888 
	C151.283752,94.403305 154.519363,95.607101 159.018768,97.326538 
	C151.121948,100.602051 144.829468,103.391617 138.398697,105.814072 
	C134.359482,107.335625 134.163055,110.381424 135.173843,113.482758 
	C136.251877,116.790382 138.601822,115.114784 140.765167,114.220192 
	C148.476288,111.031425 156.255722,108.007919 164.812943,105.035339 
M103.937828,126.724251 
	C104.921967,127.816574 105.851936,129.759979 106.901344,129.826767 
	C109.195015,129.972763 111.868797,131.160873 113.221733,127.126656 
	C119.982613,106.966835 127.191010,86.957367 134.123016,66.853989 
	C134.575211,65.542572 134.033264,63.888371 133.953751,62.393623 
	C131.773514,62.603760 129.325958,62.283520 127.502922,63.202374 
	C126.192451,63.862885 125.497765,66.099426 124.901230,67.766342 
	C119.890457,81.768013 114.965843,95.800507 109.291000,110.108078 
	C107.569565,115.362556 105.848137,120.617035 103.937828,126.724251 
z"/>
<path fill="#000000" opacity="1.000000" stroke="none" 
	d="
M204.471313,152.306427 
	C206.028290,157.468033 201.661942,156.724686 199.036240,156.869186 
	C192.691437,157.218353 186.314331,156.980255 179.487549,156.956238 
	C179.015747,156.505585 179.006638,156.077621 179.101929,155.345490 
	C186.027740,155.065399 192.854935,155.245026 199.666183,154.993484 
	C201.184814,154.937424 202.647461,153.365692 204.471313,152.306427 
z"/>
<path fill="#000000" opacity="1.000000" stroke="none" 
	d="
M176.345306,155.070862 
	C176.011551,155.359573 175.223312,155.956390 174.434097,155.957703 
	C163.439270,155.976044 152.444305,155.912888 141.331116,155.455063 
	C152.772034,155.061035 164.331207,155.081558 176.345306,155.070862 
z"/>
<path fill="#000000" opacity="1.000000" stroke="none" 
	d="
M204.102844,114.495201 
	C204.201004,114.037964 204.501236,114.087029 204.651672,114.064758 
	C204.860306,125.374931 204.918488,136.707367 204.874908,148.495605 
	C204.773132,148.951416 204.498322,148.903397 204.361084,148.928131 
	C204.150818,137.619400 204.077759,126.285919 204.102844,114.495201 
z"/>
<path fill="#000000" opacity="1.000000" stroke="none" 
	d="
M101.947586,36.211967 
	C101.947586,36.211964 101.910431,36.505703 101.934708,36.651688 
	C90.290092,36.860706 78.621185,36.923744 66.494888,36.888222 
	C66.037498,36.789665 66.089424,36.502350 66.527863,36.263107 
	C78.626732,36.086563 90.287155,36.149265 101.947586,36.211967 
z"/>
<path fill="#000000" opacity="1.000000" stroke="none" 
	d="
M138.950104,36.202217 
	C138.950104,36.202217 138.917542,36.503975 138.939270,36.654106 
	C127.625847,36.864151 116.290718,36.924061 104.498062,36.887844 
	C104.040535,36.791718 104.088196,36.502762 104.527298,36.263874 
	C116.294304,36.084061 127.622208,36.143139 138.950104,36.202217 
z"/>
<path fill="#000000" opacity="1.000000" stroke="none" 
	d="
M34.904793,73.504944 
	C34.831692,73.966293 34.482304,73.880363 34.247696,73.407272 
	C34.050213,62.006458 34.087337,51.078724 34.124466,40.150993 
	C34.427948,40.591099 34.731434,41.031208 35.097923,41.770237 
	C35.099918,52.393970 35.038906,62.718777 34.904793,73.504944 
z"/>
<path fill="#000000" opacity="1.000000" stroke="none" 
	d="
M63.941608,36.233452 
	C63.941608,36.233452 63.893497,36.507042 63.923950,36.642487 
	C54.622627,36.852581 45.290855,36.927227 35.493992,37.048286 
	C34.733433,36.922443 34.437965,36.750191 34.587097,36.294743 
	C44.668335,36.085514 54.304970,36.159485 63.941608,36.233452 
z"/>
<path fill="#D6E8F1" opacity="1.000000" stroke="none" 
	d="
M34.042633,39.911591 
	C34.087337,51.078724 34.050213,62.006458 34.068604,73.390244 
	C33.793285,74.154015 33.462456,74.461739 32.882919,74.754135 
	C32.588352,63.208149 32.542492,51.677502 32.570686,39.702255 
	C33.083427,39.395836 33.522114,39.534012 34.042633,39.911591 
z"/>
<path fill="#BAD6DE" opacity="1.000000" stroke="none" 
	d="
M63.990677,35.893917 
	C54.304970,36.159485 44.668335,36.085514 34.570808,36.037453 
	C33.882549,36.037590 33.655178,36.011814 33.083275,35.982109 
	C34.247532,35.568520 35.752235,34.823063 37.265770,34.804676 
	C45.895344,34.699844 54.527023,34.768295 63.634998,34.824959 
	C64.087929,35.099499 64.063843,35.326939 63.990677,35.893917 
z"/>
<path fill="#BAD6DE" opacity="1.000000" stroke="none" 
	d="
M101.997391,35.877403 
	C90.287155,36.149265 78.626732,36.086563 66.509499,36.118279 
	C66.021217,35.990063 65.989738,35.767429 65.923386,35.208870 
	C77.645821,34.841579 89.403152,34.810219 101.637955,34.824326 
	C102.092690,35.094143 102.069939,35.318493 101.997391,35.877403 
z"/>
<path fill="#BAD6DE" opacity="1.000000" stroke="none" 
	d="
M138.997940,35.870064 
	C127.622208,36.143139 116.294304,36.084061 104.509430,36.118538 
	C104.019516,35.989143 103.986572,35.766193 103.918861,35.206497 
	C115.308655,34.839214 126.733215,34.808670 138.634872,34.824074 
	C139.089905,35.092651 139.067841,35.315281 138.997940,35.870064 
z"/>
<path fill="#9FD8EC" opacity="1.000000" stroke="none" 
	d="
M218.697311,113.817337 
	C218.263733,114.188332 217.960236,114.150703 217.431244,114.059097 
	C217.149597,113.563423 217.095657,113.103844 217.108292,112.301559 
	C217.499893,111.943459 217.823135,111.910652 218.385437,111.837219 
	C218.692551,112.351524 218.758881,112.889053 218.697311,113.817337 
z"/>
<path fill="#D8F0F1" opacity="1.000000" stroke="none" 
	d="
M65.053871,25.170532 
	C78.059914,25.121599 91.065956,25.072666 104.535538,25.282917 
	C105.000778,25.789614 104.994324,26.036909 104.979729,26.283993 
	C91.831955,26.339401 78.684189,26.394808 65.256088,26.084583 
	C65.001801,25.536146 65.027832,25.353338 65.053871,25.170532 
z"/>
<path fill="#DAF0F0" opacity="1.000000" stroke="none" 
	d="
M105.427452,26.436573 
	C104.994324,26.036909 105.000778,25.789614 104.999039,25.356228 
	C116.026878,25.117987 127.054771,25.065622 138.554077,25.408001 
	C139.015457,26.032354 139.005386,26.261961 138.995331,26.491568 
	C138.995331,26.491568 139.004730,26.511709 139.009338,26.492826 
	C127.967697,26.512348 116.921440,26.550751 105.427452,26.436573 
z"/>
<path fill="#87B1BF" opacity="1.000000" stroke="none" 
	d="
M64.740997,25.163237 
	C65.027832,25.353338 65.001801,25.536146 64.844635,25.964729 
	C64.510704,26.194847 64.307884,26.179188 63.808517,26.088818 
	C63.817345,25.728050 64.122734,25.441996 64.740997,25.163237 
z"/>
<path fill="#87B1BF" opacity="1.000000" stroke="none" 
	d="
M139.197327,26.289856 
	C139.005386,26.261961 139.015457,26.032354 139.021484,25.458073 
	C139.178970,25.059914 139.340500,25.006426 139.744080,25.032009 
	C139.790512,25.436768 139.594910,25.762457 139.197327,26.289856 
z"/>
<path fill="#255261" opacity="1.000000" stroke="none" 
	d="
M110.015297,109.823723 
	C114.965843,95.800507 119.890457,81.768013 124.901230,67.766342 
	C125.497765,66.099426 126.192451,63.862885 127.502922,63.202374 
	C129.325958,62.283520 131.773514,62.603760 133.953751,62.393623 
	C134.033264,63.888371 134.575211,65.542572 134.123016,66.853989 
	C127.191010,86.957367 119.982613,106.966835 113.221733,127.126656 
	C111.868797,131.160873 109.195015,129.972763 106.901344,129.826767 
	C105.851936,129.759979 104.921967,127.816574 104.392448,126.314194 
	C106.569809,120.544006 108.292549,115.183868 110.015297,109.823723 
z"/>
<path fill="#265361" opacity="1.000000" stroke="none" 
	d="
M164.009308,104.921867 
	C156.255722,108.007919 148.476288,111.031425 140.765167,114.220192 
	C138.601822,115.114784 136.251877,116.790382 135.173843,113.482758 
	C134.163055,110.381424 134.359482,107.335625 138.398697,105.814072 
	C144.829468,103.391617 151.121948,100.602051 159.018768,97.326538 
	C154.519363,95.607101 151.283752,94.403305 148.073654,93.134888 
	C144.721512,91.810333 141.119873,90.841286 138.162521,88.901047 
	C136.496292,87.807877 135.102722,85.106270 135.008438,83.063599 
	C134.824341,79.075684 136.710266,78.268623 140.360046,79.919472 
	C147.691116,83.235420 155.058594,86.470810 162.818604,90.264282 
	C167.461731,91.999336 169.042267,95.014313 167.865677,98.981277 
	C167.221924,101.151794 165.335419,102.953728 164.009308,104.921867 
z"/>
<path fill="#255260" opacity="1.000000" stroke="none" 
	d="
M97.840195,114.991676 
	C90.185226,111.659752 82.545235,108.292763 74.868347,105.012115 
	C71.514694,103.578957 69.719131,101.599510 69.784996,97.517715 
	C69.853432,93.277451 72.240982,91.951874 75.454811,90.615372 
	C82.735573,87.587593 89.929871,84.352043 97.162186,81.207573 
	C99.547363,80.170532 102.177643,78.333977 103.959435,81.827393 
	C105.460014,84.769463 103.304077,88.890625 100.099762,90.157295 
	C94.172661,92.500282 88.283218,94.938568 80.928658,97.925911 
	C87.231659,100.604828 92.375755,102.791183 97.982376,105.434799 
	C102.244804,107.757713 103.524918,110.567307 101.664612,114.816605 
	C100.414200,114.873848 99.127197,114.932762 97.840195,114.991676 
z"/>
<path fill="#C5D7DB" opacity="1.000000" stroke="none" 
	d="
M164.411133,104.978607 
	C165.335419,102.953728 167.221924,101.151794 167.865677,98.981277 
	C169.042267,95.014313 167.461731,91.999336 163.147675,90.436684 
	C168.721848,88.708290 169.490448,92.895721 169.860855,96.615280 
	C170.231354,100.335541 170.334290,104.551804 164.411133,104.978607 
z"/>
<path fill="#ABC2CA" opacity="1.000000" stroke="none" 
	d="
M98.032135,115.344284 
	C99.127197,114.932762 100.414200,114.873848 101.664612,114.816605 
	C103.524918,110.567307 102.244804,107.757713 98.350418,105.564789 
	C104.731400,106.710350 104.731400,106.710350 103.688499,117.433975 
	C101.778221,116.826721 100.001144,116.261810 98.032135,115.344284 
z"/>
<path fill="#CBDDE1" opacity="1.000000" stroke="none" 
	d="
M109.653152,109.965897 
	C108.292549,115.183868 106.569809,120.544006 104.486893,125.887833 
	C105.848137,120.617035 107.569565,115.362556 109.653152,109.965897 
z"/>
</svg>